<svg width="58" height="58" viewBox="0 0 58 58" fill="none" xmlns="http://www.w3.org/2000/svg">
<path d="M50.7778 1H7.22222C3.78578 1 1 3.78578 1 7.22222V50.7778C1 54.2142 3.78578 57 7.22222 57H50.7778C54.2142 57 57 54.2142 57 50.7778V7.22222C57 3.78578 54.2142 1 50.7778 1Z" stroke="#DFDFDF" stroke-width="2" stroke-linecap="round" stroke-linejoin="round"/>
<path d="M18.112 22.7778C20.6893 22.7778 22.7786 20.6885 22.7786 18.1111C22.7786 15.5338 20.6893 13.4445 18.112 13.4445C15.5347 13.4445 13.4453 15.5338 13.4453 18.1111C13.4453 20.6885 15.5347 22.7778 18.112 22.7778Z" stroke="#DFDFDF" stroke-width="2" stroke-linecap="round" stroke-linejoin="round"/>
<path d="M57.0004 38.3334L41.4449 22.7778L7.22266 57.0001" stroke="#DFDFDF" stroke-width="2" stroke-linecap="round" stroke-linejoin="round"/>
</svg>
