<svg viewBox="0 0 20 20" fill="none" xmlns="http://www.w3.org/2000/svg">
<g clip-path="url(#clip0_3:236)">
<path d="M9.56093 3.19403H3.9714C3.54785 3.19403 3.14164 3.36229 2.84214 3.66178C2.54265 3.96128 2.37439 4.36749 2.37439 4.79104V15.9701C2.37439 16.3937 2.54265 16.7999 2.84214 17.0994C3.14164 17.3989 3.54785 17.5671 3.9714 17.5671H15.1505C15.574 17.5671 15.9802 17.3989 16.2797 17.0994C16.5792 16.7999 16.7475 16.3937 16.7475 15.9701V10.3806" stroke="currentcolor" stroke-width="2" stroke-linecap="round" stroke-linejoin="round"/>
<path d="M15.5497 1.99628C15.8674 1.67861 16.2982 1.50015 16.7475 1.50015C17.1967 1.50015 17.6276 1.67861 17.9452 1.99628C18.2629 2.31394 18.4413 2.74479 18.4413 3.19404C18.4413 3.64328 18.2629 4.07413 17.9452 4.39179L10.3594 11.9776L7.16541 12.7761L7.96391 9.58207L15.5497 1.99628Z" stroke="currentcolor" stroke-width="2" stroke-linecap="round" stroke-linejoin="round"/>
</g>
<defs>
<clipPath id="clip0_3:236">
<rect width="19.1641" height="19.1641" fill="currentcolor" transform="translate(0.777344)"/>
</clipPath>
</defs>
</svg>
