<svg width="38" height="28" viewBox="0 0 38 28" fill="none" xmlns="http://www.w3.org/2000/svg">
<path d="M2.4605 15.376C2.07487 14.9678 1.76224 14.6174 1.52996 14.3491C1.76224 14.0807 2.07487 13.7304 2.4605 13.3221C3.38315 12.3453 4.71815 11.0432 6.3653 9.74292C9.6834 7.12354 14.1506 4.60435 19.0011 4.60435C23.8515 4.60435 28.3187 7.12354 31.6368 9.74292C33.284 11.0432 34.619 12.3453 35.5416 13.3221C35.9273 13.7304 36.2399 14.0807 36.4722 14.3491C36.2399 14.6174 35.9273 14.9678 35.5416 15.376C34.619 16.3528 33.284 17.6549 31.6368 18.9552C28.3187 21.5746 23.8515 24.0938 19.0011 24.0938C14.1506 24.0938 9.6834 21.5746 6.3653 18.9552C4.71815 17.6549 3.38315 16.3528 2.4605 15.376Z" stroke="#C8C8C8" stroke-width="1.86885"/>
<circle cx="19.0011" cy="14.3488" r="4.40514" stroke="#C8C8C8" stroke-width="1.86885"/>
<path d="M5.65218 2.69983L29.9523 26.9999" stroke="white" stroke-width="2.66978"/>
<path d="M7.2634 1L31.5635 25.3001" stroke="#C8C8C8" stroke-width="2.66978"/>
</svg>
