<svg viewBox="0 0 20 20" fill="none" xmlns="http://www.w3.org/2000/svg">
<g clip-path="url(#clip0_3:251)">
<path d="M9.60694 11.9776C10.9299 11.9776 12.0025 10.9051 12.0025 9.58207C12.0025 8.25906 10.9299 7.18655 9.60694 7.18655C8.28393 7.18655 7.21143 8.25906 7.21143 9.58207C7.21143 10.9051 8.28393 11.9776 9.60694 11.9776Z" stroke="currentcolor" stroke-width="2" stroke-linecap="round" stroke-linejoin="round"/>
<path d="M15.5158 11.9776C15.4096 12.2184 15.3778 12.4856 15.4248 12.7446C15.4718 13.0036 15.5953 13.2426 15.7794 13.4308L15.8273 13.4787C15.9757 13.6271 16.0935 13.8032 16.1739 13.9971C16.2543 14.1909 16.2956 14.3988 16.2956 14.6086C16.2956 14.8185 16.2543 15.0263 16.1739 15.2202C16.0935 15.4141 15.9757 15.5902 15.8273 15.7385C15.6789 15.887 15.5028 16.0048 15.3089 16.0852C15.1151 16.1655 14.9073 16.2069 14.6974 16.2069C14.4875 16.2069 14.2797 16.1655 14.0858 16.0852C13.8919 16.0048 13.7158 15.887 13.5675 15.7385L13.5196 15.6906C13.3314 15.5065 13.0924 15.383 12.8333 15.3361C12.5743 15.2891 12.3071 15.3208 12.0663 15.4271C11.8301 15.5283 11.6287 15.6964 11.4868 15.9106C11.345 16.1248 11.2688 16.3759 11.2678 16.6328V16.7686C11.2678 17.1921 11.0995 17.5983 10.8 17.8978C10.5006 18.1973 10.0943 18.3656 9.67079 18.3656C9.24724 18.3656 8.84104 18.1973 8.54154 17.8978C8.24204 17.5983 8.07378 17.1921 8.07378 16.7686V16.6967C8.0676 16.4324 7.98205 16.1761 7.82825 15.9611C7.67445 15.746 7.45952 15.5822 7.2114 15.491C6.97056 15.3847 6.7034 15.353 6.44437 15.3999C6.18533 15.4469 5.94631 15.5704 5.75812 15.7545L5.71021 15.8024C5.56189 15.9509 5.38576 16.0687 5.19189 16.149C4.99801 16.2294 4.7902 16.2708 4.58033 16.2708C4.37046 16.2708 4.16264 16.2294 3.96877 16.149C3.77489 16.0687 3.59876 15.9509 3.45044 15.8024C3.30196 15.6541 3.18417 15.4779 3.1038 15.2841C3.02343 15.0902 2.98206 14.8824 2.98206 14.6725C2.98206 14.4626 3.02343 14.2548 3.1038 14.0609C3.18417 13.8671 3.30196 13.6909 3.45044 13.5426L3.49835 13.4947C3.68244 13.3065 3.80593 13.0675 3.85289 12.8085C3.89986 12.5494 3.86815 12.2823 3.76186 12.0414C3.66064 11.8053 3.49257 11.6038 3.27834 11.462C3.06411 11.3201 2.81307 11.244 2.55612 11.2429H2.42037C1.99682 11.2429 1.59061 11.0747 1.29112 10.7752C0.99162 10.4757 0.823364 10.0695 0.823364 9.64592C0.823364 9.22237 0.99162 8.81616 1.29112 8.51667C1.59061 8.21717 1.99682 8.04891 2.42037 8.04891H2.49224C2.75654 8.04273 3.01287 7.95718 3.2279 7.80338C3.44293 7.64958 3.60672 7.43465 3.69798 7.18653C3.80427 6.94569 3.83598 6.67853 3.78901 6.41949C3.74205 6.16046 3.61856 5.92144 3.43447 5.73325L3.38656 5.68534C3.23808 5.53702 3.12029 5.36089 3.03992 5.16701C2.95955 4.97314 2.91818 4.76533 2.91818 4.55546C2.91818 4.34558 2.95955 4.13777 3.03992 3.9439C3.12029 3.75002 3.23808 3.57389 3.38656 3.42557C3.53488 3.27709 3.71101 3.15929 3.90489 3.07893C4.09876 2.99856 4.30658 2.95719 4.51645 2.95719C4.72632 2.95719 4.93413 2.99856 5.12801 3.07893C5.32188 3.15929 5.49801 3.27709 5.64633 3.42557L5.69424 3.47348C5.88243 3.65757 6.12145 3.78105 6.38049 3.82802C6.63952 3.87499 6.90668 3.84328 7.14752 3.73699H7.2114C7.44757 3.63577 7.64899 3.4677 7.79087 3.25347C7.93274 3.03924 8.00888 2.7882 8.0099 2.53125V2.3955C8.0099 1.97195 8.17816 1.56574 8.47766 1.26625C8.77716 0.966748 9.18336 0.798492 9.60691 0.798492C10.0305 0.798492 10.4367 0.966748 10.7362 1.26625C11.0357 1.56574 11.2039 1.97195 11.2039 2.3955V2.46737C11.2049 2.72431 11.2811 2.97536 11.423 3.18959C11.5648 3.40382 11.7663 3.57189 12.0024 3.67311C12.2433 3.7794 12.5104 3.81111 12.7695 3.76414C13.0285 3.71717 13.2675 3.59369 13.4557 3.4096L13.5036 3.36169C13.6519 3.21321 13.8281 3.09541 14.0219 3.01505C14.2158 2.93468 14.4236 2.89331 14.6335 2.89331C14.8434 2.89331 15.0512 2.93468 15.2451 3.01505C15.4389 3.09541 15.6151 3.21321 15.7634 3.36169C15.9119 3.51001 16.0297 3.68614 16.11 3.88002C16.1904 4.07389 16.2318 4.2817 16.2318 4.49158C16.2318 4.70145 16.1904 4.90926 16.11 5.10313C16.0297 5.29701 15.9119 5.47314 15.7634 5.62146L15.7155 5.66937C15.5314 5.85756 15.4079 6.09658 15.3609 6.35561C15.314 6.61464 15.3457 6.88181 15.452 7.12265V7.18653C15.5532 7.4227 15.7213 7.62412 15.9355 7.766C16.1497 7.90787 16.4008 7.98401 16.6577 7.98503H16.7935C17.217 7.98503 17.6232 8.15329 17.9227 8.45279C18.2222 8.75228 18.3905 9.15849 18.3905 9.58204C18.3905 10.0056 18.2222 10.4118 17.9227 10.7113C17.6232 11.0108 17.217 11.1791 16.7935 11.1791H16.7216C16.4646 11.1801 16.2136 11.2562 15.9994 11.3981C15.7851 11.54 15.6171 11.7414 15.5158 11.9776V11.9776Z" stroke="currentcolor" stroke-width="2" stroke-linecap="round" stroke-linejoin="round"/>
</g>
<defs>
<clipPath id="clip0_3:251">
<rect width="19.1641" height="19.1641" fill="currentcolor" transform="translate(0.0249023)"/>
</clipPath>
</defs>
</svg>
